<?xml version="1.0" encoding="UTF-8" standalone="no"?>
<!DOCTYPE svg PUBLIC "-//W3C//DTD SVG 1.1//EN"
 "http://www.w3.org/Graphics/SVG/1.1/DTD/svg11.dtd">
<!-- Generated by graphviz version 2.47.0 (20210316.0004)
 -->
<!-- Title: dependencies Pages: 1 -->
<svg width="4297pt" height="284pt"
 viewBox="0.00 0.00 4297.00 284.00" xmlns="http://www.w3.org/2000/svg" xmlns:xlink="http://www.w3.org/1999/xlink">
<g id="graph0" class="graph" transform="scale(1 1) rotate(0) translate(4 280)">
<title>dependencies</title>
<polygon fill="white" stroke="transparent" points="-4,4 -4,-280 4293,-280 4293,4 -4,4"/>
<text text-anchor="start" x="2123.51" y="-42.4" font-family="Times-12" font-weight="bold" font-size="14.00">Legend</text>
<polygon fill="#ffffb3" stroke="transparent" points="1910.5,-10 1910.5,-30 1930.5,-30 1930.5,-10 1910.5,-10"/>
<text text-anchor="start" x="1934.13" y="-15.4" font-family="Times-12" font-size="14.00"> &#160;Declarations</text>
<polygon fill="#8dd3c7" stroke="transparent" points="2023.5,-10 2023.5,-30 2043.5,-30 2043.5,-10 2023.5,-10"/>
<text text-anchor="start" x="2047.23" y="-15.4" font-family="Times-12" font-size="14.00"> &#160;Module</text>
<polygon fill="#80b1d3" stroke="transparent" points="2109.5,-10 2109.5,-30 2129.5,-30 2129.5,-10 2109.5,-10"/>
<text text-anchor="start" x="2133.28" y="-15.4" font-family="Times-12" font-size="14.00"> &#160;Bootstrap</text>
<polygon fill="#fdb462" stroke="transparent" points="2206.5,-10 2206.5,-30 2226.5,-30 2226.5,-10 2206.5,-10"/>
<text text-anchor="start" x="2230.17" y="-15.4" font-family="Times-12" font-size="14.00"> &#160;Providers</text>
<polygon fill="#fb8072" stroke="transparent" points="2302.5,-10 2302.5,-30 2322.5,-30 2322.5,-10 2302.5,-10"/>
<text text-anchor="start" x="2326.23" y="-15.4" font-family="Times-12" font-size="14.00"> &#160;Exports</text>
<g id="clust1" class="cluster">
<title>cluster_AppModule</title>
<polygon fill="none" stroke="black" stroke-dasharray="1,5" points="8,-70 8,-268 4281,-268 4281,-70 8,-70"/>
</g>
<g id="clust2" class="cluster">
<title>cluster_AppModule_declarations</title>
<polygon fill="none" stroke="black" points="1322,-78 1322,-130 4273,-130 4273,-78 1322,-78"/>
</g>
<g id="clust22" class="cluster">
<title>cluster_AppModule_imports</title>
<polygon fill="none" stroke="black" points="16,-78 16,-130 1314,-130 1314,-78 16,-78"/>
</g>
<g id="clust24" class="cluster">
<title>cluster_AppModule_bootstrap</title>
<polygon fill="none" stroke="black" points="2290,-208 2290,-260 2414,-260 2414,-208 2290,-208"/>
</g>
<!-- AdminComponent -->
<g id="node1" class="node">
<title>AdminComponent</title>
<polygon fill="#ffffb3" stroke="black" points="4265.22,-122 4144.78,-122 4144.78,-86 4265.22,-86 4265.22,-122"/>
<text text-anchor="middle" x="4205" y="-99.8" font-family="Times,serif" font-size="14.00">AdminComponent</text>
</g>
<!-- AppModule -->
<g id="node20" class="node">
<title>AppModule</title>
<polygon fill="#8dd3c7" stroke="black" points="2393.66,-187 2390.66,-191 2369.66,-191 2366.66,-187 2310.34,-187 2310.34,-151 2393.66,-151 2393.66,-187"/>
<text text-anchor="middle" x="2352" y="-164.8" font-family="Times,serif" font-size="14.00">AppModule</text>
</g>
<!-- AdminComponent&#45;&gt;AppModule -->
<g id="edge1" class="edge">
<title>AdminComponent&#45;&gt;AppModule</title>
<path fill="none" stroke="black" d="M4205,-122.38C4205,-146.28 4205,-185 4205,-185 4205,-185 2403.74,-185 2403.74,-185"/>
<polygon fill="black" stroke="black" points="2403.74,-181.5 2393.74,-185 2403.74,-188.5 2403.74,-181.5"/>
</g>
<!-- AppComponent -->
<g id="node2" class="node">
<title>AppComponent</title>
<polygon fill="#ffffb3" stroke="black" points="4126.94,-122 4021.06,-122 4021.06,-86 4126.94,-86 4126.94,-122"/>
<text text-anchor="middle" x="4074" y="-99.8" font-family="Times,serif" font-size="14.00">AppComponent</text>
</g>
<!-- AppComponent&#45;&gt;AppModule -->
<g id="edge2" class="edge">
<title>AppComponent&#45;&gt;AppModule</title>
<path fill="none" stroke="black" d="M4074,-122.09C4074,-145.13 4074,-182 4074,-182 4074,-182 2403.71,-182 2403.71,-182"/>
<polygon fill="black" stroke="black" points="2403.71,-178.5 2393.71,-182 2403.71,-185.5 2403.71,-178.5"/>
</g>
<!-- CommentsComponent -->
<g id="node3" class="node">
<title>CommentsComponent</title>
<polygon fill="#ffffb3" stroke="black" points="4003,-122 3861,-122 3861,-86 4003,-86 4003,-122"/>
<text text-anchor="middle" x="3932" y="-99.8" font-family="Times,serif" font-size="14.00">CommentsComponent</text>
</g>
<!-- CommentsComponent&#45;&gt;AppModule -->
<g id="edge3" class="edge">
<title>CommentsComponent&#45;&gt;AppModule</title>
<path fill="none" stroke="black" d="M3932,-122.16C3932,-144.35 3932,-179 3932,-179 3932,-179 2403.85,-179 2403.85,-179"/>
<polygon fill="black" stroke="black" points="2403.85,-175.5 2393.85,-179 2403.85,-182.5 2403.85,-175.5"/>
</g>
<!-- CreatePostComponent -->
<g id="node4" class="node">
<title>CreatePostComponent</title>
<polygon fill="#ffffb3" stroke="black" points="3842.98,-122 3701.02,-122 3701.02,-86 3842.98,-86 3842.98,-122"/>
<text text-anchor="middle" x="3772" y="-99.8" font-family="Times,serif" font-size="14.00">CreatePostComponent</text>
</g>
<!-- CreatePostComponent&#45;&gt;AppModule -->
<g id="edge4" class="edge">
<title>CreatePostComponent&#45;&gt;AppModule</title>
<path fill="none" stroke="black" d="M3772,-122.17C3772,-143.5 3772,-176 3772,-176 3772,-176 2403.73,-176 2403.73,-176"/>
<polygon fill="black" stroke="black" points="2403.73,-172.5 2393.73,-176 2403.73,-179.5 2403.73,-172.5"/>
</g>
<!-- DashboardComponent -->
<g id="node5" class="node">
<title>DashboardComponent</title>
<polygon fill="#ffffb3" stroke="black" points="3682.97,-122 3541.03,-122 3541.03,-86 3682.97,-86 3682.97,-122"/>
<text text-anchor="middle" x="3612" y="-99.8" font-family="Times,serif" font-size="14.00">DashboardComponent</text>
</g>
<!-- DashboardComponent&#45;&gt;AppModule -->
<g id="edge5" class="edge">
<title>DashboardComponent&#45;&gt;AppModule</title>
<path fill="none" stroke="black" d="M3612,-122.03C3612,-142.77 3612,-174 3612,-174 3612,-174 2403.92,-174 2403.92,-174"/>
<polygon fill="black" stroke="black" points="2403.92,-170.5 2393.92,-174 2403.92,-177.5 2403.92,-170.5"/>
</g>
<!-- ExternProfileComponent -->
<g id="node6" class="node">
<title>ExternProfileComponent</title>
<polygon fill="#ffffb3" stroke="black" points="3523.25,-122 3366.75,-122 3366.75,-86 3523.25,-86 3523.25,-122"/>
<text text-anchor="middle" x="3445" y="-99.8" font-family="Times,serif" font-size="14.00">ExternProfileComponent</text>
</g>
<!-- ExternProfileComponent&#45;&gt;AppModule -->
<g id="edge6" class="edge">
<title>ExternProfileComponent&#45;&gt;AppModule</title>
<path fill="none" stroke="black" d="M3445,-122.31C3445,-142.15 3445,-171 3445,-171 3445,-171 2403.84,-171 2403.84,-171"/>
<polygon fill="black" stroke="black" points="2403.84,-167.5 2393.84,-171 2403.84,-174.5 2403.84,-167.5"/>
</g>
<!-- FeedComponent -->
<g id="node7" class="node">
<title>FeedComponent</title>
<polygon fill="#ffffb3" stroke="black" points="3348.05,-122 3239.95,-122 3239.95,-86 3348.05,-86 3348.05,-122"/>
<text text-anchor="middle" x="3294" y="-99.8" font-family="Times,serif" font-size="14.00">FeedComponent</text>
</g>
<!-- FeedComponent&#45;&gt;AppModule -->
<g id="edge7" class="edge">
<title>FeedComponent&#45;&gt;AppModule</title>
<path fill="none" stroke="black" d="M3294,-122.17C3294,-141.09 3294,-168 3294,-168 3294,-168 2403.69,-168 2403.69,-168"/>
<polygon fill="black" stroke="black" points="2403.69,-164.5 2393.69,-168 2403.69,-171.5 2403.69,-164.5"/>
</g>
<!-- ForgotPasswordComponent -->
<g id="node8" class="node">
<title>ForgotPasswordComponent</title>
<polygon fill="#ffffb3" stroke="black" points="3222.32,-122 3049.68,-122 3049.68,-86 3222.32,-86 3222.32,-122"/>
<text text-anchor="middle" x="3136" y="-99.8" font-family="Times,serif" font-size="14.00">ForgotPasswordComponent</text>
</g>
<!-- ForgotPasswordComponent&#45;&gt;AppModule -->
<g id="edge8" class="edge">
<title>ForgotPasswordComponent&#45;&gt;AppModule</title>
<path fill="none" stroke="black" d="M3136,-122.3C3136,-140.27 3136,-165 3136,-165 3136,-165 2403.87,-165 2403.87,-165"/>
<polygon fill="black" stroke="black" points="2403.87,-161.5 2393.87,-165 2403.87,-168.5 2403.87,-161.5"/>
</g>
<!-- FriendlistComponent -->
<g id="node9" class="node">
<title>FriendlistComponent</title>
<polygon fill="#ffffb3" stroke="black" points="3031.5,-122 2896.5,-122 2896.5,-86 3031.5,-86 3031.5,-122"/>
<text text-anchor="middle" x="2964" y="-99.8" font-family="Times,serif" font-size="14.00">FriendlistComponent</text>
</g>
<!-- FriendlistComponent&#45;&gt;AppModule -->
<g id="edge9" class="edge">
<title>FriendlistComponent&#45;&gt;AppModule</title>
<path fill="none" stroke="black" d="M2964,-122.02C2964,-139.37 2964,-163 2964,-163 2964,-163 2404.07,-163 2404.07,-163"/>
<polygon fill="black" stroke="black" points="2404.07,-159.5 2394.07,-163 2404.07,-166.5 2404.07,-159.5"/>
</g>
<!-- LikeButtonComponent -->
<g id="node10" class="node">
<title>LikeButtonComponent</title>
<polygon fill="#ffffb3" stroke="black" points="2878.61,-122 2733.39,-122 2733.39,-86 2878.61,-86 2878.61,-122"/>
<text text-anchor="middle" x="2806" y="-99.8" font-family="Times,serif" font-size="14.00">LikeButtonComponent</text>
</g>
<!-- LikeButtonComponent&#45;&gt;AppModule -->
<g id="edge10" class="edge">
<title>LikeButtonComponent&#45;&gt;AppModule</title>
<path fill="none" stroke="black" d="M2806,-122.03C2806,-138.4 2806,-160 2806,-160 2806,-160 2403.9,-160 2403.9,-160"/>
<polygon fill="black" stroke="black" points="2403.9,-156.5 2393.9,-160 2403.9,-163.5 2403.9,-156.5"/>
</g>
<!-- LoginComponent -->
<g id="node11" class="node">
<title>LoginComponent</title>
<polygon fill="#ffffb3" stroke="black" points="2715.28,-122 2600.72,-122 2600.72,-86 2715.28,-86 2715.28,-122"/>
<text text-anchor="middle" x="2658" y="-99.8" font-family="Times,serif" font-size="14.00">LoginComponent</text>
</g>
<!-- LoginComponent&#45;&gt;AppModule -->
<g id="edge11" class="edge">
<title>LoginComponent&#45;&gt;AppModule</title>
<path fill="none" stroke="black" d="M2658,-122.24C2658,-137.57 2658,-157 2658,-157 2658,-157 2403.91,-157 2403.91,-157"/>
<polygon fill="black" stroke="black" points="2403.91,-153.5 2393.91,-157 2403.91,-160.5 2403.91,-153.5"/>
</g>
<!-- LogoutComponent -->
<g id="node12" class="node">
<title>LogoutComponent</title>
<polygon fill="#ffffb3" stroke="black" points="2582.78,-122 2461.22,-122 2461.22,-86 2582.78,-86 2582.78,-122"/>
<text text-anchor="middle" x="2522" y="-99.8" font-family="Times,serif" font-size="14.00">LogoutComponent</text>
</g>
<!-- LogoutComponent&#45;&gt;AppModule -->
<g id="edge12" class="edge">
<title>LogoutComponent&#45;&gt;AppModule</title>
<path fill="none" stroke="black" d="M2522,-122.05C2522,-136.37 2522,-154 2522,-154 2522,-154 2404.02,-154 2404.02,-154"/>
<polygon fill="black" stroke="black" points="2404.02,-150.5 2394.02,-154 2404.02,-157.5 2404.02,-150.5"/>
</g>
<!-- NotificationsFeedComponent -->
<g id="node13" class="node">
<title>NotificationsFeedComponent</title>
<polygon fill="#ffffb3" stroke="black" points="2442.64,-122 2261.36,-122 2261.36,-86 2442.64,-86 2442.64,-122"/>
<text text-anchor="middle" x="2352" y="-99.8" font-family="Times,serif" font-size="14.00">NotificationsFeedComponent</text>
</g>
<!-- NotificationsFeedComponent&#45;&gt;AppModule -->
<g id="edge13" class="edge">
<title>NotificationsFeedComponent&#45;&gt;AppModule</title>
<path fill="none" stroke="black" d="M2352,-122.11C2352,-122.11 2352,-140.99 2352,-140.99"/>
<polygon fill="black" stroke="black" points="2348.5,-140.99 2352,-150.99 2355.5,-140.99 2348.5,-140.99"/>
</g>
<!-- ProfileComponent -->
<g id="node14" class="node">
<title>ProfileComponent</title>
<polygon fill="#ffffb3" stroke="black" points="2242.93,-122 2123.07,-122 2123.07,-86 2242.93,-86 2242.93,-122"/>
<text text-anchor="middle" x="2183" y="-99.8" font-family="Times,serif" font-size="14.00">ProfileComponent</text>
</g>
<!-- ProfileComponent&#45;&gt;AppModule -->
<g id="edge14" class="edge">
<title>ProfileComponent&#45;&gt;AppModule</title>
<path fill="none" stroke="black" d="M2183,-122.05C2183,-136.37 2183,-154 2183,-154 2183,-154 2300.22,-154 2300.22,-154"/>
<polygon fill="black" stroke="black" points="2300.22,-157.5 2310.22,-154 2300.22,-150.5 2300.22,-157.5"/>
</g>
<!-- RegisterComponent -->
<g id="node15" class="node">
<title>RegisterComponent</title>
<polygon fill="#ffffb3" stroke="black" points="2104.98,-122 1977.02,-122 1977.02,-86 2104.98,-86 2104.98,-122"/>
<text text-anchor="middle" x="2041" y="-99.8" font-family="Times,serif" font-size="14.00">RegisterComponent</text>
</g>
<!-- RegisterComponent&#45;&gt;AppModule -->
<g id="edge15" class="edge">
<title>RegisterComponent&#45;&gt;AppModule</title>
<path fill="none" stroke="black" d="M2041,-122.24C2041,-137.57 2041,-157 2041,-157 2041,-157 2300.06,-157 2300.06,-157"/>
<polygon fill="black" stroke="black" points="2300.06,-160.5 2310.06,-157 2300.06,-153.5 2300.06,-160.5"/>
</g>
<!-- SearchbarComponent -->
<g id="node16" class="node">
<title>SearchbarComponent</title>
<polygon fill="#ffffb3" stroke="black" points="1958.79,-122 1821.21,-122 1821.21,-86 1958.79,-86 1958.79,-122"/>
<text text-anchor="middle" x="1890" y="-99.8" font-family="Times,serif" font-size="14.00">SearchbarComponent</text>
</g>
<!-- SearchbarComponent&#45;&gt;AppModule -->
<g id="edge16" class="edge">
<title>SearchbarComponent&#45;&gt;AppModule</title>
<path fill="none" stroke="black" d="M1890,-122.03C1890,-138.4 1890,-160 1890,-160 1890,-160 2300.19,-160 2300.19,-160"/>
<polygon fill="black" stroke="black" points="2300.19,-163.5 2310.19,-160 2300.19,-156.5 2300.19,-163.5"/>
</g>
<!-- SearchfeedComponent -->
<g id="node17" class="node">
<title>SearchfeedComponent</title>
<polygon fill="#ffffb3" stroke="black" points="1803.51,-122 1660.49,-122 1660.49,-86 1803.51,-86 1803.51,-122"/>
<text text-anchor="middle" x="1732" y="-99.8" font-family="Times,serif" font-size="14.00">SearchfeedComponent</text>
</g>
<!-- SearchfeedComponent&#45;&gt;AppModule -->
<g id="edge17" class="edge">
<title>SearchfeedComponent&#45;&gt;AppModule</title>
<path fill="none" stroke="black" d="M1732,-122.02C1732,-139.37 1732,-163 1732,-163 1732,-163 2299.87,-163 2299.87,-163"/>
<polygon fill="black" stroke="black" points="2299.87,-166.5 2309.87,-163 2299.87,-159.5 2299.87,-166.5"/>
</g>
<!-- SettingsComponent -->
<g id="node18" class="node">
<title>SettingsComponent</title>
<polygon fill="#ffffb3" stroke="black" points="1642.45,-122 1515.55,-122 1515.55,-86 1642.45,-86 1642.45,-122"/>
<text text-anchor="middle" x="1579" y="-99.8" font-family="Times,serif" font-size="14.00">SettingsComponent</text>
</g>
<!-- SettingsComponent&#45;&gt;AppModule -->
<g id="edge18" class="edge">
<title>SettingsComponent&#45;&gt;AppModule</title>
<path fill="none" stroke="black" d="M1579,-122.3C1579,-140.27 1579,-165 1579,-165 1579,-165 2300.17,-165 2300.17,-165"/>
<polygon fill="black" stroke="black" points="2300.17,-168.5 2310.17,-165 2300.17,-161.5 2300.17,-168.5"/>
</g>
<!-- WriteCommentComponent -->
<g id="node19" class="node">
<title>WriteCommentComponent</title>
<polygon fill="#ffffb3" stroke="black" points="1498.43,-122 1329.57,-122 1329.57,-86 1498.43,-86 1498.43,-122"/>
<text text-anchor="middle" x="1414" y="-99.8" font-family="Times,serif" font-size="14.00">WriteCommentComponent</text>
</g>
<!-- WriteCommentComponent&#45;&gt;AppModule -->
<g id="edge19" class="edge">
<title>WriteCommentComponent&#45;&gt;AppModule</title>
<path fill="none" stroke="black" d="M1414,-122.17C1414,-141.09 1414,-168 1414,-168 1414,-168 2300.18,-168 2300.18,-168"/>
<polygon fill="black" stroke="black" points="2300.18,-171.5 2310.18,-168 2300.18,-164.5 2300.18,-171.5"/>
</g>
<!-- AppComponent  -->
<g id="node27" class="node">
<title>AppComponent </title>
<polygon fill="#80b1d3" stroke="black" points="2406.44,-252 2297.56,-252 2297.56,-216 2406.44,-216 2406.44,-252"/>
<text text-anchor="middle" x="2352" y="-229.8" font-family="Times,serif" font-size="14.00">AppComponent </text>
</g>
<!-- AppModule&#45;&gt;AppComponent  -->
<g id="edge26" class="edge">
<title>AppModule&#45;&gt;AppComponent </title>
<path fill="none" stroke="black" stroke-dasharray="1,5" d="M2352,-187.11C2352,-187.11 2352,-205.99 2352,-205.99"/>
<polygon fill="black" stroke="black" points="2348.5,-205.99 2352,-215.99 2355.5,-205.99 2348.5,-205.99"/>
</g>
<!-- AppRoutingModule -->
<g id="node21" class="node">
<title>AppRoutingModule</title>
<polygon fill="#8dd3c7" stroke="black" points="1306.27,-122 1303.27,-126 1282.27,-126 1279.27,-122 1177.73,-122 1177.73,-86 1306.27,-86 1306.27,-122"/>
<text text-anchor="middle" x="1242" y="-99.8" font-family="Times,serif" font-size="14.00">AppRoutingModule</text>
</g>
<!-- AppRoutingModule&#45;&gt;AppModule -->
<g id="edge20" class="edge">
<title>AppRoutingModule&#45;&gt;AppModule</title>
<path fill="none" stroke="black" d="M1242,-122.31C1242,-142.15 1242,-171 1242,-171 1242,-171 2300.18,-171 2300.18,-171"/>
<polygon fill="black" stroke="black" points="2300.18,-174.5 2310.18,-171 2300.18,-167.5 2300.18,-174.5"/>
</g>
<!-- NgOptimizedImage -->
<g id="node22" class="node">
<title>NgOptimizedImage</title>
<polygon fill="#8dd3c7" stroke="black" points="1159.69,-122 1156.69,-126 1135.69,-126 1132.69,-122 1032.31,-122 1032.31,-86 1159.69,-86 1159.69,-122"/>
<text text-anchor="middle" x="1096" y="-99.8" font-family="Times,serif" font-size="14.00">NgOptimizedImage</text>
</g>
<!-- NgOptimizedImage&#45;&gt;AppModule -->
<g id="edge21" class="edge">
<title>NgOptimizedImage&#45;&gt;AppModule</title>
<path fill="none" stroke="black" d="M1096,-122.03C1096,-142.77 1096,-174 1096,-174 1096,-174 2300.21,-174 2300.21,-174"/>
<polygon fill="black" stroke="black" points="2300.21,-177.5 2310.21,-174 2300.21,-170.5 2300.21,-177.5"/>
</g>
<!-- provideAuth(() =&gt; getAuth()) -->
<g id="node23" class="node">
<title>provideAuth(() =&gt; getAuth())</title>
<polygon fill="#8dd3c7" stroke="black" points="1014.12,-122 1011.12,-126 990.12,-126 987.12,-122 831.88,-122 831.88,-86 1014.12,-86 1014.12,-122"/>
<text text-anchor="middle" x="923" y="-99.8" font-family="Times,serif" font-size="14.00">provideAuth(() =&gt; getAuth())</text>
</g>
<!-- provideAuth(() =&gt; getAuth())&#45;&gt;AppModule -->
<g id="edge22" class="edge">
<title>provideAuth(() =&gt; getAuth())&#45;&gt;AppModule</title>
<path fill="none" stroke="black" d="M923,-122.17C923,-143.5 923,-176 923,-176 923,-176 2300.01,-176 2300.01,-176"/>
<polygon fill="black" stroke="black" points="2300.01,-179.5 2310.01,-176 2300.01,-172.5 2300.01,-179.5"/>
</g>
<!-- provideFirebaseApp(() =&gt; initializeApp(environment -->
<g id="node24" class="node">
<title>provideFirebaseApp(() =&gt; initializeApp(environment</title>
<polygon fill="#8dd3c7" stroke="black" points="813.58,-122 810.58,-126 789.58,-126 786.58,-122 498.42,-122 498.42,-86 813.58,-86 813.58,-122"/>
<text text-anchor="middle" x="656" y="-99.8" font-family="Times,serif" font-size="14.00">provideFirebaseApp(() =&gt; initializeApp(environment</text>
</g>
<!-- provideFirebaseApp(() =&gt; initializeApp(environment&#45;&gt;AppModule -->
<g id="edge23" class="edge">
<title>provideFirebaseApp(() =&gt; initializeApp(environment&#45;&gt;AppModule</title>
<path fill="none" stroke="black" d="M656,-122.16C656,-144.35 656,-179 656,-179 656,-179 2300.08,-179 2300.08,-179"/>
<polygon fill="black" stroke="black" points="2300.08,-182.5 2310.08,-179 2300.08,-175.5 2300.08,-182.5"/>
</g>
<!-- provideFirestore(() =&gt; getFirestore()) -->
<g id="node25" class="node">
<title>provideFirestore(() =&gt; getFirestore())</title>
<polygon fill="#8dd3c7" stroke="black" points="480.14,-122 477.14,-126 456.14,-126 453.14,-122 253.86,-122 253.86,-86 480.14,-86 480.14,-122"/>
<text text-anchor="middle" x="367" y="-99.8" font-family="Times,serif" font-size="14.00">provideFirestore(() =&gt; getFirestore())</text>
</g>
<!-- provideFirestore(() =&gt; getFirestore())&#45;&gt;AppModule -->
<g id="edge24" class="edge">
<title>provideFirestore(() =&gt; getFirestore())&#45;&gt;AppModule</title>
<path fill="none" stroke="black" d="M367,-122.09C367,-145.13 367,-182 367,-182 367,-182 2300.08,-182 2300.08,-182"/>
<polygon fill="black" stroke="black" points="2300.08,-185.5 2310.08,-182 2300.08,-178.5 2300.08,-185.5"/>
</g>
<!-- provideStorage(() =&gt; getStorage()) -->
<g id="node26" class="node">
<title>provideStorage(() =&gt; getStorage())</title>
<polygon fill="#8dd3c7" stroke="black" points="236.15,-122 233.15,-126 212.15,-126 209.15,-122 23.85,-122 23.85,-86 236.15,-86 236.15,-122"/>
<text text-anchor="middle" x="130" y="-99.8" font-family="Times,serif" font-size="14.00">provideStorage(() =&gt; getStorage())</text>
</g>
<!-- provideStorage(() =&gt; getStorage())&#45;&gt;AppModule -->
<g id="edge25" class="edge">
<title>provideStorage(() =&gt; getStorage())&#45;&gt;AppModule</title>
<path fill="none" stroke="black" d="M130,-122.38C130,-146.28 130,-185 130,-185 130,-185 2300.09,-185 2300.09,-185"/>
<polygon fill="black" stroke="black" points="2300.09,-188.5 2310.09,-185 2300.09,-181.5 2300.09,-188.5"/>
</g>
</g>
</svg>
